<!-- filepath: c:\Users\Lenovo\Documents\VSC Code\bombaydc-test\assets\images\facebook.svg -->
<svg xmlns="http://www.w3.org/2000/svg" width="18" height="18" viewBox="0 0 18 18">
  <path fill="#818181" d="M15.613,17.748h1.968v8.129a.293.293,0,0,0,.293.293h3.339a.293.293,0,0,0,.293-.293V17.785h2.266a.293.293,0,0,0,.288-.256l.34-2.989a.293.293,0,0,0-.068-.225.3.3,0,0,0-.22-.1H21.5V12.347c0-.565.3-.853.9-.853H24.1a.293.293,0,0,0,.293-.288V8.463A.293.293,0,0,0,24.1,8.17h-2.46A4.5,4.5,0,0,0,18.7,9.28a3.088,3.088,0,0,0-1.047,2.748v2.188H15.613a.293.293,0,0,0-.293.293v2.947A.293.293,0,0,0,15.613,17.748Z"/>
</svg>
