<!-- Instagram -->
<svg xmlns="http://www.w3.org/2000/svg" width="18" height="18" viewBox="0 0 18 18">
  <path fill="#818181"
    d="M12.643,11.3m5.315-1.983c-2.442,0-2.75,0-3.713.056a6.614,6.614,0,0,0-2.184.42,4.626,4.626,0,0,0-2.632,2.627,6.816,6.816,0,0,0-.459,2.19c0,.958-.039,1.243-.039,3.708s.039,2.75.039,3.7A6.777,6.777,0,0,0,9.384,24.2a4.447,4.447,0,0,0,1.042,1.591,4.374,4.374,0,0,0,1.591,1.042,6.625,6.625,0,0,0,2.184.414c.963.045,1.271.056,3.713.056s2.75,0,3.713-.056a6.626,6.626,0,0,0,2.184-.414A4.66,4.66,0,0,0,26.443,24.2a6.777,6.777,0,0,0,.448-2.184c.045-.963.056-1.266.056-3.713s0-2.75-.056-3.708a6.816,6.816,0,0,0-.414-2.19,4.374,4.374,0,0,0-1.058-1.591,4.43,4.43,0,0,0-1.591-1.036,6.614,6.614,0,0,0-2.184-.42C20.68,9.311,20.372,9.3,17.93,9.3" />
  <circle fill="#f4f4f4" cx="8" cy="8" r="3" />
  <circle fill="#f4f4f4" cx="14" cy="6" r="1" />
</svg>
