<!-- LinkedIn -->
<svg xmlns="http://www.w3.org/2000/svg" width="18" height="18" viewBox="0 0 18 18">
  <path fill="#818181"
    d="M23.9,7.15H8.566a1.311,1.311,0,0,0-1.326,1.3v15.4a1.316,1.316,0,0,0,1.326,1.3H23.9a1.316,1.316,0,0,0,1.331-1.3V8.446A1.311,1.311,0,0,0,23.9,7.15ZM12.574,22.487H9.907V13.916h2.667Zm-1.331-9.761a1.548,1.548,0,1,1,1.543-1.548,1.548,1.548,0,0,1-1.543,1.548Zm11.329,9.761H19.905V18.313c0-1.008,0-2.279-1.387-2.279s-1.6,1.084-1.6,2.2v4.25H14.248V13.916H16.81v1.175h.035A2.808,2.808,0,0,1,19.366,13.7c2.7,0,3.2,1.78,3.2,4.094Z" />
</svg>
