<!-- Twitter -->
<svg xmlns="http://www.w3.org/2000/svg" width="18" height="18" viewBox="0 0 18 18">
  <path fill="#818181"
    d="M15.67,31.757a12.81,12.81,0,0,0,12.9-12.87V18.3a9.307,9.307,0,0,0,2.215-2.344,9.063,9.063,0,0,1-2.608.677,4.565,4.565,0,0,0,2.032-2.506,9.232,9.232,0,0,1-2.886,1.1,4.538,4.538,0,0,0-7.878,3.1,4.742,4.742,0,0,0,.115,1.016A12.87,12.87,0,0,1,10.252,14.6a4.552,4.552,0,0,0,1.355,6.1,4.389,4.389,0,0,1-2.032-.569.19.19,0,0,0,0,.061,4.538,4.538,0,0,0,3.637,4.444,4.328,4.328,0,0,1-1.2.129,4.443,4.443,0,0,1-.853-.081,4.545,4.545,0,0,0,4.24,3.15,9.138,9.138,0,0,1-5.636,1.937A9.6,9.6,0,0,1,8.68,29.7a12.87,12.87,0,0,0,6.957,2.032" />
</svg>
